<svg width="24" height="24" viewBox="0 0 24 24" fill="none" xmlns="http://www.w3.org/2000/svg">
  <path d="M6.03002 19.0001L15.59 5.00009H17.97L8.41002 19.0001H6.03002ZM7.25002 12.5601C6.57002 12.5601 5.97002 12.4068 5.45002 12.1001C4.93002 11.7801 4.51669 11.3334 4.21002 10.7601C3.91669 10.1734 3.77002 9.48675 3.77002 8.70009C3.77002 7.91342 3.91669 7.23342 4.21002 6.66009C4.51669 6.08675 4.93002 5.64009 5.45002 5.32009C5.97002 5.00009 6.57002 4.84009 7.25002 4.84009C7.93002 4.84009 8.53002 5.00009 9.05002 5.32009C9.57002 5.64009 9.97669 6.08675 10.27 6.66009C10.5634 7.23342 10.71 7.91342 10.71 8.70009C10.71 9.48675 10.5634 10.1734 10.27 10.7601C9.97669 11.3334 9.57002 11.7801 9.05002 12.1001C8.53002 12.4068 7.93002 12.5601 7.25002 12.5601ZM7.25002 10.9201C7.69002 10.9201 8.04335 10.7401 8.31002 10.3801C8.57669 10.0068 8.71002 9.44675 8.71002 8.70009C8.71002 7.95342 8.57669 7.40009 8.31002 7.04009C8.04335 6.66675 7.69002 6.48009 7.25002 6.48009C6.82335 6.48009 6.47002 6.66675 6.19002 7.04009C5.92335 7.40009 5.79002 7.95342 5.79002 8.70009C5.79002 9.43342 5.92335 9.98675 6.19002 10.3601C6.47002 10.7334 6.82335 10.9201 7.25002 10.9201ZM16.75 19.1601C16.0834 19.1601 15.4834 19.0068 14.95 18.7001C14.43 18.3801 14.0234 17.9334 13.73 17.3601C13.4367 16.7734 13.29 16.0868 13.29 15.3001C13.29 14.5134 13.4367 13.8334 13.73 13.2601C14.0234 12.6868 14.43 12.2401 14.95 11.9201C15.4834 11.6001 16.0834 11.4401 16.75 11.4401C17.4434 11.4401 18.05 11.6001 18.57 11.9201C19.09 12.2401 19.4967 12.6868 19.79 13.2601C20.0834 13.8334 20.23 14.5134 20.23 15.3001C20.23 16.0868 20.0834 16.7734 19.79 17.3601C19.4967 17.9334 19.09 18.3801 18.57 18.7001C18.05 19.0068 17.4434 19.1601 16.75 19.1601ZM16.75 17.5201C17.19 17.5201 17.5434 17.3401 17.81 16.9801C18.0767 16.6068 18.21 16.0468 18.21 15.3001C18.21 14.5668 18.0767 14.0134 17.81 13.6401C17.5434 13.2668 17.19 13.0801 16.75 13.0801C16.3234 13.0801 15.97 13.2668 15.69 13.6401C15.4234 14.0001 15.29 14.5534 15.29 15.3001C15.29 16.0468 15.4234 16.6068 15.69 16.9801C15.97 17.3401 16.3234 17.5201 16.75 17.5201Z"/>
</svg>
