<svg width="20" height="20" viewBox="0 0 20 20" fill="none" xmlns="http://www.w3.org/2000/svg">
  <path d="M16.0349 10C16.0349 10.2518 16.251 10.456 16.5176 10.456C16.6457 10.456 16.7685 10.4079 16.859 10.3224C16.9495 10.2369 17.0004 10.1209 17.0004 10C16.9961 6.35048 13.8646 3.39294 10.0004 3.38892C9.73378 3.38892 9.51764 3.59305 9.51764 3.84485C9.51764 4.09666 9.73378 4.30079 10.0004 4.30079C13.3316 4.30431 16.0312 6.85389 16.0349 10Z"/>
  <path d="M8.7976 11.1361C7.46132 9.87409 7.1596 8.61205 7.09153 8.10642C7.07251 7.96661 7.12345 7.8264 7.22936 7.72707L8.31074 6.70623C8.46981 6.55609 8.49804 6.32209 8.37881 6.142L6.65705 3.61702C6.52514 3.4176 6.25429 3.34563 6.03163 3.45083L3.2676 4.68026C3.08754 4.764 2.98164 4.94468 3.00208 5.13324C3.14691 6.43266 3.74674 9.62697 7.07053 12.7663C10.3943 15.9057 13.776 16.472 15.1526 16.6088C15.3523 16.6281 15.5436 16.528 15.6323 16.358L16.934 13.7475C17.045 13.5377 16.9693 13.2826 16.759 13.1578L14.0855 11.5321C13.8949 11.4194 13.6472 11.4459 13.4881 11.5959L12.4072 12.6172C12.302 12.7173 12.1536 12.7654 12.0055 12.7474C11.4702 12.6831 10.1339 12.3982 8.7976 11.1361Z"/>
  <path d="M14.1038 10.4559C13.8372 10.4559 13.6211 10.2518 13.6211 10C13.6188 8.11232 11.9991 6.58259 10.0004 6.58046C9.73378 6.58046 9.51764 6.37633 9.51764 6.12452C9.51764 5.87271 9.73378 5.66858 10.0004 5.66858C12.5321 5.67122 14.5838 7.60891 14.5866 10C14.5866 10.2518 14.3705 10.4559 14.1038 10.4559Z"/>
</svg>
