<svg width="24" height="24" viewBox="0 0 24 24" fill="none" xmlns="http://www.w3.org/2000/svg">
  <path d="M15.1271 5.19727C14.4277 5.19727 13.7593 5.3576 13.1404 5.67383C12.7191 5.88906 12.3321 6.17502 12 6.5143C11.6679 6.17502 11.2809 5.88906 10.8596 5.67383C10.2407 5.3576 9.57223 5.19727 8.87282 5.19727C6.46166 5.19727 4.5 7.15893 4.5 9.57012C4.5 11.2779 5.40195 13.0918 7.18076 14.9613C8.66598 16.5222 10.4844 17.8234 11.7482 18.6401L12 18.8029L12.2518 18.6401C13.5156 17.8235 15.334 16.5222 16.8192 14.9613C18.5981 13.0918 19.5 11.2779 19.5 9.57012C19.5 7.15893 17.5383 5.19727 15.1271 5.19727Z"/>
</svg>
