<svg width="24" height="24" viewBox="0 0 24 24" fill="none" xmlns="http://www.w3.org/2000/svg">
  <path d="M8.98044 8.16801C8.98044 10.1938 10.3325 11.836 12.0003 11.836C13.6681 11.836 15.0202 10.1938 15.0202 8.16801C15.0202 6.1422 14.5762 4.5 12.0003 4.5C9.42436 4.5 8.98044 6.1422 8.98044 8.16801Z"/>
  <path d="M10.3463 12.1176C6.81947 12.7541 6.35858 13.7596 6.30265 17.2886C6.29909 17.5143 6.29721 17.5533 6.29626 17.5332L6.29648 17.8074C6.29648 17.8074 7.13622 19.5001 11.9999 19.5001C16.8637 19.5001 17.7033 17.8074 17.7033 17.8074C17.7033 17.6106 17.7036 17.4977 17.7038 17.4367C17.7029 17.4693 17.7004 17.4545 17.6952 17.1739C17.6309 13.7378 17.142 12.7471 13.6536 12.1176C13.6536 12.1176 13.1571 12.7502 11.9999 12.7502C10.8428 12.7502 10.3463 12.1176 10.3463 12.1176Z"/>
</svg>
