<svg width="20" height="20" viewBox="0 0 20 20" fill="none" xmlns="http://www.w3.org/2000/svg">
  <path d="M8.35623 8.75669C8.35623 7.81492 9.09362 7.04871 10 7.04871C10.9064 7.04871 11.6438 7.81492 11.6438 8.75669C11.6438 9.69846 10.9064 10.4647 10 10.4647C9.09362 10.4647 8.35623 9.69846 8.35623 8.75669Z"/>
  <path fill-rule="evenodd" clip-rule="evenodd" d="M10 3.31812C11.453 3.31812 12.819 3.90604 13.8464 4.97359C14.8738 6.04116 15.4397 7.46053 15.4397 8.97025C15.4397 12.0244 12.6604 14.5646 11.1673 15.9294L11.1663 15.9303C10.9593 16.1196 10.7805 16.283 10.6379 16.4213C10.4591 16.5949 10.2295 16.6818 9.99999 16.6818C9.77043 16.6818 9.54093 16.595 9.36206 16.4213C9.22001 16.2834 9.04181 16.1205 8.83556 15.932L8.83271 15.9294C7.33959 14.5646 4.56036 12.0244 4.56036 8.97023C4.56036 7.46053 5.12618 6.04116 6.15363 4.97359C7.18102 3.90604 8.54705 3.31812 10 3.31812ZM7.60285 8.75667C7.60285 10.1301 8.6782 11.2475 10 11.2475C11.3218 11.2475 12.3972 10.1301 12.3972 8.75667C12.3972 7.38322 11.3218 6.26587 10 6.26587C8.6782 6.26587 7.60285 7.38322 7.60285 8.75667Z"/>
</svg>
