<svg width="20" height="20" viewBox="0 0 20 20" fill="none" xmlns="http://www.w3.org/2000/svg">
  <path fill-rule="evenodd" clip-rule="evenodd" d="M14.2578 4.19983C15.9918 4.6022 16.6551 5.61615 17.4867 7.01172H14.2578V4.19983ZM4.12415 7.12891C4.46365 7.12891 4.71008 7.29279 4.71008 7.67578C4.71008 7.99881 4.4487 8.2608 4.12582 8.26172H0.585938C0.262299 8.26172 0 8.52417 0 8.84766C0 9.1713 0.262299 9.43359 0.585938 9.43359H5.85938C6.18607 9.43359 6.4476 9.69574 6.4476 10.0195C6.4476 10.3432 6.1853 10.6055 5.86166 10.6055H0.585938C0.262299 10.6055 0 10.8678 0 11.1914C0 11.515 0.262299 11.7773 0.585938 11.7773H1.875V13.5352C1.875 13.8588 2.1373 14.1211 2.46094 14.1211H3.63876C3.84872 15.1553 4.76257 15.918 5.83984 15.918C6.91711 15.918 7.83096 15.1553 8.04092 14.1211H13.9903C14.2003 15.1553 15.1141 15.918 16.1914 15.918C17.2687 15.918 18.1825 15.1553 18.3925 14.1211H19.4141C19.7377 14.1211 20 13.8588 20 13.5352V10.0195C20 8.30032 18.1866 8.18619 18.185 8.18359H13.6719C13.3482 8.18359 13.0859 7.9213 13.0859 7.59766V4.08203H2.46094C2.1373 4.08203 1.875 4.34433 1.875 4.66797V5.95703H1.17188C0.848236 5.95703 0.585938 6.21933 0.585938 6.54297C0.585938 6.86661 0.848236 7.12891 1.17188 7.12891H4.12415ZM16.951 12.9123C17.3705 13.3318 17.3705 14.0121 16.951 14.4316C16.2762 15.1064 15.1172 14.6263 15.1172 13.6719C15.1172 12.7176 16.2762 12.2375 16.951 12.9123V12.9123ZM6.59943 12.9123C7.01889 13.3318 7.01889 14.0121 6.59943 14.4316C5.92468 15.1064 4.76562 14.6263 4.76562 13.6719C4.76562 12.7176 5.92468 12.2375 6.59943 12.9123V12.9123Z"/>
</svg>
