<svg width="24" height="24" viewBox="0 0 24 24" fill="none" xmlns="http://www.w3.org/2000/svg">
  <path d="M21.5834 5.33333C21.75 5.33333 21.8334 5.41669 21.9167 5.50001C22 5.58333 22 5.75001 22 5.75001L20.3333 12.4167C20.3333 12.5833 20.1667 12.75 20 12.75L7.83332 14.4167C8.16668 15 8.83332 15.3333 9.5 15.3333H19.0834C19.3334 15.3333 19.5 15.5 19.5 15.75C19.5 16 19.3334 16.1667 19.0834 16.1667H9.50004C8.08336 16.1667 6.91668 15.1667 6.58336 13.8334L4.58336 3.66669H2.41668C2.16668 3.66669 2 3.50001 2 3.25001C2 3.00001 2.16668 2.83333 2.41664 2.83337H4.91664C5.08332 2.83337 5.25 3.00001 5.33332 3.16669L5.75 5.33333H21.5834Z"/>
  <path d="M9.08332 21.1666C10.2339 21.1666 11.1666 20.2339 11.1666 19.0833C11.1666 17.9327 10.2339 17 9.08332 17C7.93273 17 7 17.9327 7 19.0833C7 20.2339 7.93273 21.1666 9.08332 21.1666Z"/>
  <path d="M17.4167 21.1666C18.5673 21.1666 19.5 20.2339 19.5 19.0833C19.5 17.9327 18.5673 17 17.4167 17C16.2661 17 15.3334 17.9327 15.3334 19.0833C15.3334 20.2339 16.2661 21.1666 17.4167 21.1666Z"/>
</svg>
