<svg width="24" height="24" viewBox="0 0 24 24" fill="none" xmlns="http://www.w3.org/2000/svg">
  <path fill-rule="evenodd" clip-rule="evenodd" d="M22.4096 16.948L17.4895 12.0267C18.4126 9.93082 18.0176 7.38958 16.3037 5.67526C14.0707 3.44173 10.4562 3.44143 8.22295 5.67526C5.99518 7.90355 5.99518 11.5292 8.22295 13.7575C9.99326 15.5282 12.5877 15.8654 14.6588 14.9079L19.5538 19.804C20.343 20.5934 21.6205 20.5935 22.4097 19.8038C23.1968 19.0165 23.1967 17.7353 22.4096 16.948ZM9.13458 12.8461C7.40926 11.1204 7.40926 8.31246 9.13458 6.58671C10.8637 4.85714 13.6626 4.85684 15.3921 6.58671C17.1174 8.31246 17.1174 11.1204 15.3921 12.8461C13.6629 14.5757 10.864 14.5759 9.13458 12.8461ZM21.498 18.8925C21.2126 19.178 20.7508 19.1781 20.4654 18.8926L15.7887 14.2148C16.1731 13.9122 16.5157 13.5647 16.8132 13.1736L21.4979 17.8594C21.7827 18.1442 21.7827 18.6077 21.498 18.8925Z"/>
  <path d="M1.64456 11.7237H4.39305C4.74902 11.7237 5.03761 11.4351 5.03761 11.0791C5.03761 10.7232 4.74902 10.4346 4.39305 10.4346H1.64456C1.28859 10.4346 1 10.7232 1 11.0791C1 11.4351 1.28859 11.7237 1.64456 11.7237Z"/>
  <path d="M5.42375 14.4737H1.64456C1.28859 14.4737 1 14.1851 1 13.8291C1 13.4732 1.28859 13.1846 1.64456 13.1846H5.42375C5.77972 13.1846 6.06831 13.4732 6.06831 13.8291C6.06831 14.1851 5.77972 14.4737 5.42375 14.4737Z"/>
  <path d="M1.64456 17.2238H8.17228C8.52825 17.2238 8.81684 16.9352 8.81684 16.5793C8.81684 16.2233 8.52825 15.9347 8.17228 15.9347H1.64456C1.28859 15.9347 1 16.2233 1 16.5793C1 16.9352 1.28859 17.2238 1.64456 17.2238Z"/>
  <path d="M1.64456 18.6848H15.7307C16.0867 18.6848 16.3753 18.9734 16.3753 19.3294C16.3753 19.6853 16.0867 19.9739 15.7307 19.9739H1.64456C1.28859 19.9739 1 19.6853 1 19.3294C1 18.9734 1.28859 18.6848 1.64456 18.6848Z"/>
</svg>
