<svg width="20" height="20" viewBox="0 0 20 20" fill="none" xmlns="http://www.w3.org/2000/svg">
  <path d="M10 3.31812C6.14005 3.31812 3 6.31543 3 9.99993C3 13.6844 6.14005 16.6818 10 16.6818C13.86 16.6818 17 13.6844 17 9.99993C17 6.31543 13.86 3.31812 10 3.31812ZM13.3291 13.4561C13.2153 13.5646 13.066 13.6193 12.9167 13.6193C12.7674 13.6193 12.618 13.5646 12.5043 13.4561L9.5876 10.672C9.47791 10.5679 9.4167 10.4264 9.4167 10.2784V6.65902C9.4167 6.35112 9.67796 6.10224 10 6.10224C10.322 6.10224 10.5833 6.35112 10.5833 6.65902V10.0479L13.3291 12.6687C13.5571 12.8865 13.5571 13.2384 13.3291 13.4561V13.4561Z"/>
</svg>
