<svg width="118" height="71" viewBox="0 0 118 71" fill="none" xmlns="http://www.w3.org/2000/svg">
<g clip-path="url(#clip0_7922_29)">
<path d="M83.2188 71C102.439 71 118 55.5209 118 36.4581H83.2188V71Z" fill="#A1D214"/>
<path d="M57.4586 0C57.4586 0 57.1328 14.7823 70.7646 19.0379C70.7897 19.0379 74.1225 8.03821 57.4586 0Z" fill="black"/>
<path d="M78.8335 40.9625V25.4585C78.8335 23.9653 77.7309 22.8205 76.2525 22.7957C74.8506 22.7957 74.2414 23.5597 73.5928 24.3732L73.5211 24.463L65.8783 34.293V25.4585C65.8783 23.9404 64.7506 22.8205 63.2471 22.8205C61.7436 22.8205 60.616 23.9404 60.616 25.4585V40.9625C60.616 42.4557 61.7687 43.6004 63.2471 43.6004C64.0991 43.6004 64.8509 43.252 65.4523 42.4805L73.5712 32.327V40.9625C73.5712 42.4805 74.6989 43.6004 76.2024 43.6004C77.7059 43.6004 78.8335 42.4805 78.8335 40.9625Z" fill="black"/>
<path fill-rule="evenodd" clip-rule="evenodd" d="M54.5517 41.1118C54.5517 42.5303 53.4491 43.6004 51.9456 43.6004C50.818 43.6004 49.966 42.9534 49.4648 41.7091L49.0388 40.639H41.822L41.396 41.7091C40.8948 42.9534 40.0428 43.6004 38.9152 43.6004C37.4117 43.6004 36.3091 42.5303 36.3091 41.1118C36.3091 40.7385 36.4093 40.2906 36.5847 39.8426L42.9245 24.5626C43.3756 23.4427 44.2526 22.8206 45.4304 22.8206C46.6081 22.8206 47.4852 23.4178 47.9362 24.5626L54.2761 39.8426C54.4765 40.2906 54.5517 40.7634 54.5517 41.1118ZM47.4852 36.483L45.4304 30.6099L43.3756 36.483H47.4852Z" fill="black"/>
<path d="M30.3201 25.8317V40.9625C30.3201 42.4805 29.1925 43.6004 27.689 43.6004C26.1854 43.6004 25.0578 42.4805 25.0578 40.9625V27.8973H21.1737C21.0735 35.9355 19.7454 40.191 16.588 42.4805C15.5356 43.252 14.5583 43.6004 13.4056 43.6004C12.0023 43.6004 11.025 42.6796 11.025 41.3109C11.025 40.191 11.6264 39.3698 12.6789 38.9965C15.31 38.0508 16.1871 35.1391 16.1871 27.3747V25.782C16.1871 24.2639 17.3147 23.144 18.8433 23.144H27.6639C29.1925 23.1938 30.3201 24.3137 30.3201 25.8317Z" fill="black"/>
<path d="M106.423 25.5331V40.9874C106.423 42.5055 105.295 43.6253 103.792 43.6253C102.288 43.6253 101.161 42.5055 101.161 40.9874V33.9695L98.5296 38.1255C97.8029 39.2703 97.1263 39.7431 96.149 39.7431C95.1717 39.7431 94.4951 39.2951 93.7684 38.1255L91.1373 33.9695V40.9874C91.1373 42.5055 90.0097 43.6253 88.5061 43.6253C87.0026 43.6253 85.875 42.5055 85.875 40.9874V25.5331C85.875 23.9902 86.9776 22.8206 88.5061 22.8206C89.5837 22.8206 90.3104 23.3432 91.1624 24.7368L96.149 32.7003L101.136 24.7368C101.988 23.3432 102.739 22.8206 103.792 22.8206C105.32 22.8206 106.423 23.9653 106.423 25.5331Z" fill="black"/>
<path d="M61.8939 14.1104C63.7232 16.2506 66.2792 18.142 69.7623 19.3365C61.8438 21.4767 57.0326 14.3593 57.0326 14.3593C58.8869 14.0607 60.4907 13.986 61.8939 14.1104Z" fill="black"/>
<path fill-rule="evenodd" clip-rule="evenodd" d="M14.4967 52.2404C16.2049 52.2842 17.2415 53.0799 17.2415 54.445C17.2415 55.8028 16.2049 56.6058 14.4967 56.6423V57.1606H14.139V56.6423C12.4308 56.6058 11.3942 55.8028 11.3942 54.445C11.3942 53.0799 12.4308 52.2769 14.139 52.2404V51.7294H14.4967V52.2404ZM14.4967 52.547V56.3357C15.9859 56.2846 16.8765 55.613 16.8765 54.4377C16.8765 53.2697 15.9859 52.5908 14.4967 52.547ZM14.139 52.547C12.6425 52.5981 11.7592 53.2624 11.7592 54.445C11.7592 55.6203 12.6571 56.2846 14.139 56.3357V52.547Z" fill="black"/>
<path fill-rule="evenodd" clip-rule="evenodd" d="M22.2068 51.89H24.0391C25.3239 51.89 26.0977 52.5324 26.0977 53.6128C26.0977 54.6859 25.3239 55.3283 24.0391 55.3283H22.5791V57H22.2068V51.89ZM22.5791 54.9925H24.0391C25.1341 54.9925 25.7181 54.4888 25.7181 53.6128C25.7181 52.7295 25.1341 52.2258 24.0391 52.2258H22.5791V54.9925Z" fill="black"/>
<path d="M31.312 54.5691V56.6642H34.4656V57H30.9397V51.89H34.3561V52.2258H31.312V54.2406H34.0349V54.5691H31.312Z" fill="black"/>
<path d="M45.126 56.6642V51.89H45.4983V57H39.359V51.89H39.7313V56.6642H42.2425V51.89H42.6148V56.6642H45.126Z" fill="black"/>
<path d="M61.3948 51.89H61.7014L61.7087 57H61.3437L61.3364 52.6273L59.1975 56.3211H59.015L56.8761 52.6419V57H56.5111V51.89H56.825L59.1099 55.8393L61.3948 51.89Z" fill="black"/>
<path fill-rule="evenodd" clip-rule="evenodd" d="M71.4897 57H71.0882L70.4312 55.5619H67.4674L66.8177 57H66.4162L68.7668 51.89H69.1391L71.4897 57ZM68.9493 52.2988L67.6134 55.248H70.2925L68.9493 52.2988Z" fill="black"/>
<path fill-rule="evenodd" clip-rule="evenodd" d="M76.2011 51.89H78.0334C79.3183 51.89 80.092 52.5324 80.092 53.6128C80.092 54.6859 79.3183 55.3283 78.0334 55.3283H76.5734V57H76.2011V51.89ZM76.5734 54.9925H78.0334C79.1284 54.9925 79.7124 54.4888 79.7124 53.6128C79.7124 52.7295 79.1284 52.2258 78.0334 52.2258H76.5734V54.9925Z" fill="black"/>
<path d="M88.9199 57H88.4819L86.5328 54.5764H85.3064V57H84.9341V51.89H85.3064V54.2406H86.5401L88.3724 51.89H88.7885L86.8321 54.3793L88.9199 57Z" fill="black"/>
<path d="M93.8539 54.5691V56.6642H97.0075V57H93.4816V51.89H96.898V52.2258H93.8539V54.2406H96.5768V54.5691H93.8539Z" fill="black"/>
<path d="M101.054 51.89H105.106V52.2258H103.266V57H102.894V52.2258H101.054V51.89Z" fill="black"/>
</g>
<defs>
<clipPath id="clip0_7922_29">
<rect width="118" height="71" fill="white"/>
</clipPath>
</defs>
</svg>
