<svg xmlns="http://www.w3.org/2000/svg" xmlns:xlink="http://www.w3.org/1999/xlink"><defs><clipPath id="clip0_7922_29"><path fill="#fff" d="M0 0h118v71H0z"/></clipPath></defs><symbol id="icon__cart" viewBox="0 0 24 24"><path d="M21.583 5.333c.167 0 .25.084.334.167.083.083.083.25.083.25l-1.667 6.667a.358.358 0 01-.333.333L7.833 14.417c.334.583 1 .916 1.667.916h9.583c.25 0 .417.167.417.417 0 .25-.167.417-.417.417H9.5c-1.417 0-2.583-1-2.917-2.334l-2-10.166H2.417C2.167 3.667 2 3.5 2 3.25c0-.25.167-.417.417-.417h2.5c.166 0 .333.167.416.334l.417 2.166h15.833zM9.083 21.167a2.083 2.083 0 100-4.167 2.083 2.083 0 000 4.167zM17.417 21.167a2.083 2.083 0 100-4.167 2.083 2.083 0 000 4.167z"/></symbol><symbol id="icon__discount" viewBox="0 0 24 24"><path d="M6.03 19l9.56-14h2.38L8.41 19H6.03zm1.22-6.44c-.68 0-1.28-.153-1.8-.46a3.442 3.442 0 01-1.24-1.34c-.293-.587-.44-1.273-.44-2.06 0-.787.147-1.467.44-2.04.307-.573.72-1.02 1.24-1.34.52-.32 1.12-.48 1.8-.48.68 0 1.28.16 1.8.48a3.3 3.3 0 011.22 1.34c.293.573.44 1.253.44 2.04 0 .787-.147 1.473-.44 2.06a3.3 3.3 0 01-1.22 1.34c-.52.307-1.12.46-1.8.46zm0-1.64c.44 0 .793-.18 1.06-.54.267-.373.4-.933.4-1.68 0-.747-.133-1.3-.4-1.66-.267-.373-.62-.56-1.06-.56-.427 0-.78.187-1.06.56-.267.36-.4.913-.4 1.66 0 .733.133 1.287.4 1.66.28.373.633.56 1.06.56zm9.5 8.24a3.545 3.545 0 01-1.8-.46 3.3 3.3 0 01-1.22-1.34c-.293-.587-.44-1.273-.44-2.06 0-.787.147-1.467.44-2.04a3.3 3.3 0 011.22-1.34 3.43 3.43 0 011.8-.48c.693 0 1.3.16 1.82.48a3.3 3.3 0 011.22 1.34c.293.573.44 1.253.44 2.04 0 .787-.147 1.473-.44 2.06a3.3 3.3 0 01-1.22 1.34c-.52.307-1.127.46-1.82.46zm0-1.64c.44 0 .793-.18 1.06-.54.267-.373.4-.933.4-1.68 0-.733-.133-1.287-.4-1.66s-.62-.56-1.06-.56c-.427 0-.78.187-1.06.56-.267.36-.4.913-.4 1.66 0 .747.133 1.307.4 1.68.28.36.633.54 1.06.54z"/></symbol><symbol id="icon__favorite" viewBox="0 0 24 24"><path d="M15.127 5.197c-.7 0-1.368.16-1.987.477a4.407 4.407 0 00-1.14.84 4.407 4.407 0 00-1.14-.84A4.378 4.378 0 004.5 9.57c0 1.708.902 3.522 2.68 5.391 1.486 1.561 3.304 2.862 4.568 3.68l.252.162.252-.163c1.264-.817 3.082-2.118 4.567-3.679 1.78-1.87 2.681-3.683 2.681-5.39a4.378 4.378 0 00-4.373-4.374z"/></symbol><symbol id="icon__user" viewBox="0 0 24 24"><path d="M8.98 8.168c0 2.026 1.352 3.668 3.02 3.668s3.02-1.642 3.02-3.668c0-2.026-.444-3.668-3.02-3.668S8.98 6.142 8.98 8.168zM10.346 12.118c-3.527.636-3.987 1.642-4.043 5.17a2.268 2.268 0 01-.007.245v.274S7.136 19.5 12 19.5s5.703-1.693 5.703-1.693v-.37c0 .032-.003.017-.008-.263-.064-3.436-.553-4.427-4.041-5.056 0 0-.497.632-1.654.632s-1.654-.632-1.654-.632z"/></symbol><symbol id="logo__lime" viewBox="0 0 118 71"><g clip-path="url(#clip0_7922_29)"><path d="M83.219 71C102.439 71 118 55.52 118 36.458H83.219V71z" fill="#A1D214"/><path d="M57.459 0s-.326 14.782 13.306 19.038c.025 0 3.358-11-13.306-19.038zM78.834 40.962V25.459c0-1.493-1.103-2.637-2.582-2.662-1.401 0-2.01.764-2.66 1.577l-.07.09-7.644 9.83v-8.834c0-1.519-1.127-2.639-2.63-2.639-1.504 0-2.632 1.12-2.632 2.639v15.503c0 1.494 1.153 2.638 2.631 2.638.852 0 1.604-.348 2.205-1.12l8.12-10.153v8.636c0 1.517 1.127 2.637 2.63 2.637 1.504 0 2.632-1.12 2.632-2.638z" fill="#000"/><path fill-rule="evenodd" clip-rule="evenodd" d="M54.552 41.112c0 1.418-1.103 2.488-2.606 2.488-1.128 0-1.98-.647-2.481-1.89l-.426-1.071h-7.217l-.426 1.07c-.501 1.244-1.353 1.891-2.48 1.891-1.504 0-2.607-1.07-2.607-2.488 0-.373.1-.821.276-1.27l6.34-15.28c.45-1.12 1.328-1.741 2.505-1.741 1.178 0 2.055.597 2.506 1.742l6.34 15.28c.2.448.276.92.276 1.269zm-7.067-4.629L45.43 30.61l-2.054 5.873h4.11z" fill="#000"/><path d="M30.32 25.832v15.13c0 1.518-1.128 2.638-2.631 2.638-1.504 0-2.631-1.12-2.631-2.638V27.898h-3.884c-.1 8.038-1.429 12.294-4.586 14.584-1.052.771-2.03 1.12-3.182 1.12-1.404 0-2.381-.921-2.381-2.29 0-1.12.601-1.941 1.654-2.315 2.631-.945 3.508-3.857 3.508-11.621v-1.593c0-1.518 1.128-2.638 2.656-2.638h8.82c1.53.05 2.657 1.17 2.657 2.688zM106.423 25.533v15.454c0 1.518-1.128 2.638-2.631 2.638-1.504 0-2.631-1.12-2.631-2.638V33.97l-2.631 4.157c-.727 1.144-1.404 1.617-2.381 1.617-.977 0-1.654-.448-2.38-1.617l-2.632-4.157v7.018c0 1.518-1.127 2.638-2.63 2.638-1.504 0-2.632-1.12-2.632-2.638V25.533c0-1.543 1.103-2.712 2.631-2.712 1.078 0 1.804.522 2.656 1.916L96.15 32.7l4.987-7.963c.852-1.394 1.603-1.916 2.656-1.916 1.528 0 2.631 1.144 2.631 2.712zM61.894 14.11c1.83 2.14 4.385 4.032 7.868 5.227-7.918 2.14-12.73-4.978-12.73-4.978 1.855-.298 3.459-.373 4.862-.249z" fill="#000"/><path fill-rule="evenodd" clip-rule="evenodd" d="M14.497 52.24c1.708.044 2.744.84 2.744 2.205 0 1.358-1.036 2.16-2.744 2.197v.519h-.358v-.519c-1.708-.036-2.745-.84-2.745-2.197 0-1.365 1.037-2.168 2.745-2.205v-.51h.358v.51zm0 .307v3.789c1.489-.051 2.38-.723 2.38-1.898 0-1.168-.891-1.847-2.38-1.891zm-.358 0c-1.496.051-2.38.715-2.38 1.898 0 1.175.898 1.84 2.38 1.89v-3.788zM22.207 51.89h1.832c1.285 0 2.059.642 2.059 1.723 0 1.073-.774 1.715-2.059 1.715h-1.46V57h-.372v-5.11zm.372 3.102h1.46c1.095 0 1.68-.503 1.68-1.38 0-.883-.585-1.386-1.68-1.386h-1.46v2.767z" fill="#000"/><path d="M31.312 54.57v2.094h3.154V57H30.94v-5.11h3.416v.336h-3.044v2.015h2.723v.328h-2.723zM45.126 56.664V51.89h.372V57H39.36v-5.11h.372v4.774h2.511V51.89h.373v4.774h2.511zM61.395 51.89h.306L61.71 57h-.365l-.008-4.373-2.139 3.694h-.182l-2.139-3.68V57h-.365v-5.11h.314l2.285 3.95 2.285-3.95z" fill="#000"/><path fill-rule="evenodd" clip-rule="evenodd" d="M71.49 57h-.402l-.657-1.438h-2.964L66.817 57h-.4l2.35-5.11h.372L71.49 57zm-2.54-4.701l-1.337 2.949h2.68l-1.344-2.95zM76.201 51.89h1.832c1.285 0 2.059.642 2.059 1.723 0 1.073-.774 1.715-2.059 1.715h-1.46V57h-.372v-5.11zm.372 3.102h1.46c1.095 0 1.68-.503 1.68-1.38 0-.883-.585-1.386-1.68-1.386h-1.46v2.767z" fill="#000"/><path d="M88.92 57h-.438l-1.95-2.424h-1.226V57h-.372v-5.11h.372v2.35h1.234l1.832-2.35h.416l-1.956 2.49L88.92 57zM93.854 54.57v2.094h3.153V57h-3.525v-5.11h3.416v.336h-3.044v2.015h2.723v.328h-2.723zM101.054 51.89h4.052v.336h-1.84V57h-.372v-4.774h-1.84v-.336z" fill="#000"/></g></symbol><view id="icon__default-view" viewBox="0 0 24 24"/>
<use href="#icon__default" width="24" height="24" x="0" y="0"/>
</svg>