<svg xmlns="http://www.w3.org/2000/svg" xmlns:xlink="http://www.w3.org/1999/xlink"><defs><clipPath id="clip0_7922_29"><path fill="#fff" d="M0 0h118v71H0z"/></clipPath></defs><symbol id="icon__arrow--down" viewBox="0 0 10 10"><path d="M5 7.85c.18 0 .358-.068.495-.205l4.3-4.3a.7.7 0 00-.99-.99L5 6.16 1.195 2.355a.7.7 0 00-.99.99l4.3 4.3A.698.698 0 005 7.85z"/></symbol><symbol id="icon__cart" viewBox="0 0 24 24"><path d="M21.583 5.333c.167 0 .25.084.334.167.083.083.083.25.083.25l-1.667 6.667a.358.358 0 01-.333.333L7.833 14.417c.334.583 1 .916 1.667.916h9.583c.25 0 .417.167.417.417 0 .25-.167.417-.417.417H9.5c-1.417 0-2.583-1-2.917-2.334l-2-10.166H2.417C2.167 3.667 2 3.5 2 3.25c0-.25.167-.417.417-.417h2.5c.166 0 .333.167.416.334l.417 2.166h15.833zM9.083 21.167a2.083 2.083 0 100-4.167 2.083 2.083 0 000 4.167zM17.417 21.167a2.083 2.083 0 100-4.167 2.083 2.083 0 000 4.167z"/></symbol><symbol id="icon__catalog" viewBox="0 0 24 24"><path clip-rule="evenodd" d="M22.41 16.948l-4.92-4.921a5.726 5.726 0 00-1.186-6.352 5.71 5.71 0 00-8.081 0 5.722 5.722 0 000 8.082 5.714 5.714 0 006.436 1.15l4.895 4.897c.789.79 2.067.79 2.856 0a2.022 2.022 0 000-2.856zM9.135 12.846a4.432 4.432 0 010-6.26 4.422 4.422 0 016.257 0 4.432 4.432 0 010 6.26 4.422 4.422 0 01-6.257 0zm12.363 6.046a.73.73 0 01-1.033 0l-4.676-4.677c.384-.303.727-.65 1.024-1.041l4.685 4.685a.731.731 0 010 1.033z"/><path d="M1.645 11.724h2.748a.645.645 0 000-1.29H1.645a.645.645 0 000 1.29zM5.424 14.474h-3.78a.645.645 0 010-1.29h3.78a.645.645 0 010 1.29zM1.645 17.224h6.527a.645.645 0 000-1.29H1.645a.645.645 0 000 1.29zM1.645 18.685H15.73a.645.645 0 010 1.289H1.645a.645.645 0 010-1.29z"/></symbol><symbol id="icon__clock" viewBox="0 0 20 20"><path d="M10 3.318c-3.86 0-7 2.997-7 6.682 0 3.684 3.14 6.682 7 6.682s7-2.998 7-6.682c0-3.685-3.14-6.682-7-6.682zm3.33 10.138a.597.597 0 01-.413.163.597.597 0 01-.413-.163l-2.916-2.784a.542.542 0 01-.171-.394V6.66A.57.57 0 0110 6.102a.57.57 0 01.583.557v3.389l2.746 2.62a.539.539 0 010 .788z"/></symbol><symbol id="icon__delivery" viewBox="0 0 20 20"><path clip-rule="evenodd" d="M14.258 4.2c1.734.402 2.397 1.416 3.229 2.812h-3.23V4.2zM4.124 7.129c.34 0 .586.164.586.547a.586.586 0 01-.584.586H.586a.586.586 0 000 1.172h5.273a.586.586 0 11.003 1.171H.586a.586.586 0 100 1.172h1.289v1.758c0 .324.262.586.586.586h1.178a2.247 2.247 0 004.402 0h5.95a2.247 2.247 0 004.401 0h1.022a.586.586 0 00.586-.586V10.02c0-1.72-1.813-1.834-1.815-1.836h-4.513a.586.586 0 01-.586-.586V4.082H2.46a.586.586 0 00-.586.586v1.289h-.703a.586.586 0 100 1.172h2.952zm12.827 5.783a1.074 1.074 0 11-1.52 1.52 1.074 1.074 0 011.52-1.52zm-10.352 0a1.074 1.074 0 11-1.52 1.52 1.074 1.074 0 011.52-1.52z"/></symbol><symbol id="icon__discount" viewBox="0 0 24 24"><path d="M6.03 19l9.56-14h2.38L8.41 19H6.03zm1.22-6.44c-.68 0-1.28-.153-1.8-.46a3.442 3.442 0 01-1.24-1.34c-.293-.587-.44-1.273-.44-2.06 0-.787.147-1.467.44-2.04.307-.573.72-1.02 1.24-1.34.52-.32 1.12-.48 1.8-.48.68 0 1.28.16 1.8.48a3.3 3.3 0 011.22 1.34c.293.573.44 1.253.44 2.04 0 .787-.147 1.473-.44 2.06a3.3 3.3 0 01-1.22 1.34c-.52.307-1.12.46-1.8.46zm0-1.64c.44 0 .793-.18 1.06-.54.267-.373.4-.933.4-1.68 0-.747-.133-1.3-.4-1.66-.267-.373-.62-.56-1.06-.56-.427 0-.78.187-1.06.56-.267.36-.4.913-.4 1.66 0 .733.133 1.287.4 1.66.28.373.633.56 1.06.56zm9.5 8.24a3.545 3.545 0 01-1.8-.46 3.3 3.3 0 01-1.22-1.34c-.293-.587-.44-1.273-.44-2.06 0-.787.147-1.467.44-2.04a3.3 3.3 0 011.22-1.34 3.43 3.43 0 011.8-.48c.693 0 1.3.16 1.82.48a3.3 3.3 0 011.22 1.34c.293.573.44 1.253.44 2.04 0 .787-.147 1.473-.44 2.06a3.3 3.3 0 01-1.22 1.34c-.52.307-1.127.46-1.82.46zm0-1.64c.44 0 .793-.18 1.06-.54.267-.373.4-.933.4-1.68 0-.733-.133-1.287-.4-1.66s-.62-.56-1.06-.56c-.427 0-.78.187-1.06.56-.267.36-.4.913-.4 1.66 0 .747.133 1.307.4 1.68.28.36.633.54 1.06.54z"/></symbol><symbol id="icon__favorite" viewBox="0 0 24 24"><path d="M15.127 5.197c-.7 0-1.368.16-1.987.477a4.407 4.407 0 00-1.14.84 4.407 4.407 0 00-1.14-.84A4.378 4.378 0 004.5 9.57c0 1.708.902 3.522 2.68 5.391 1.486 1.561 3.304 2.862 4.568 3.68l.252.162.252-.163c1.264-.817 3.082-2.118 4.567-3.679 1.78-1.87 2.681-3.683 2.681-5.39a4.378 4.378 0 00-4.373-4.374z"/></symbol><symbol id="icon__phone" viewBox="0 0 20 20"><path d="M16.035 10a.47.47 0 00.483.456c.128 0 .25-.048.341-.134A.444.444 0 0017 10c-.004-3.65-3.135-6.607-7-6.611a.47.47 0 00-.482.456A.47.47 0 0010 4.3c3.332.003 6.031 2.553 6.035 5.699zM8.798 11.136C7.46 9.874 7.16 8.612 7.092 8.106a.438.438 0 01.137-.379l1.082-1.02a.437.437 0 00.068-.565L6.657 3.617a.499.499 0 00-.625-.166L3.268 4.68a.449.449 0 00-.266.452c.145 1.3.745 4.494 4.069 7.633 3.323 3.14 6.705 3.706 8.082 3.843.2.02.39-.081.48-.251l1.301-2.61a.442.442 0 00-.175-.59l-2.674-1.626a.504.504 0 00-.597.064l-1.08 1.021a.497.497 0 01-.402.13c-.536-.064-1.872-.349-3.208-1.61z"/><path d="M14.104 10.456A.47.47 0 0113.62 10C13.62 8.112 12 6.583 10.001 6.58a.47.47 0 01-.483-.455.47.47 0 01.482-.456c2.532.002 4.584 1.94 4.587 4.331a.47.47 0 01-.483.456z"/></symbol><symbol id="icon__pin" viewBox="0 0 20 20"><path d="M8.356 8.757c0-.942.738-1.708 1.644-1.708.906 0 1.644.766 1.644 1.708 0 .941-.738 1.708-1.644 1.708-.906 0-1.644-.767-1.644-1.708z"/><path clip-rule="evenodd" d="M10 3.318c1.453 0 2.819.588 3.846 1.656A5.728 5.728 0 0115.44 8.97c0 3.054-2.78 5.595-4.273 6.96-.208.19-.386.353-.53.491a.913.913 0 01-1.275 0c-.142-.138-.32-.3-.526-.489l-.003-.003C7.34 14.565 4.56 12.024 4.56 8.97c0-1.51.566-2.929 1.594-3.996A5.303 5.303 0 0110 3.318zM7.603 8.757c0 1.373 1.075 2.49 2.397 2.49 1.322 0 2.397-1.117 2.397-2.49 0-1.374-1.075-2.491-2.397-2.491-1.322 0-2.397 1.117-2.397 2.49z"/></symbol><symbol id="icon__search" viewBox="0 0 20 20"><path d="M8.808 0C3.95 0 0 3.951 0 8.808c0 4.856 3.951 8.807 8.808 8.807 4.856 0 8.807-3.95 8.807-8.807S13.665 0 8.808 0zm0 15.99c-3.96 0-7.182-3.223-7.182-7.182 0-3.96 3.222-7.182 7.182-7.182 3.96 0 7.181 3.222 7.181 7.182 0 3.96-3.222 7.181-7.181 7.181z"/><path d="M19.762 18.612L15.1 13.951a.813.813 0 10-1.15 1.15l4.662 4.66a.81.81 0 001.15 0 .813.813 0 000-1.149z"/></symbol><symbol id="icon__user" viewBox="0 0 24 24"><path d="M8.98 8.168c0 2.026 1.352 3.668 3.02 3.668s3.02-1.642 3.02-3.668c0-2.026-.444-3.668-3.02-3.668S8.98 6.142 8.98 8.168zM10.346 12.118c-3.527.636-3.987 1.642-4.043 5.17a2.268 2.268 0 01-.007.245v.274S7.136 19.5 12 19.5s5.703-1.693 5.703-1.693v-.37c0 .032-.003.017-.008-.263-.064-3.436-.553-4.427-4.041-5.056 0 0-.497.632-1.654.632s-1.654-.632-1.654-.632z"/></symbol><symbol id="logo__lime" viewBox="0 0 118 71"><g clip-path="url(#clip0_7922_29)"><path d="M83.219 71C102.439 71 118 55.52 118 36.458H83.219V71z" fill="#A1D214"/><path d="M57.459 0s-.326 14.782 13.306 19.038c.025 0 3.358-11-13.306-19.038zM78.834 40.962V25.459c0-1.493-1.103-2.637-2.582-2.662-1.401 0-2.01.764-2.66 1.577l-.07.09-7.644 9.83v-8.834c0-1.519-1.127-2.639-2.63-2.639-1.504 0-2.632 1.12-2.632 2.639v15.503c0 1.494 1.153 2.638 2.631 2.638.852 0 1.604-.348 2.205-1.12l8.12-10.153v8.636c0 1.517 1.127 2.637 2.63 2.637 1.504 0 2.632-1.12 2.632-2.638z" fill="#000"/><path fill-rule="evenodd" clip-rule="evenodd" d="M54.552 41.112c0 1.418-1.103 2.488-2.606 2.488-1.128 0-1.98-.647-2.481-1.89l-.426-1.071h-7.217l-.426 1.07c-.501 1.244-1.353 1.891-2.48 1.891-1.504 0-2.607-1.07-2.607-2.488 0-.373.1-.821.276-1.27l6.34-15.28c.45-1.12 1.328-1.741 2.505-1.741 1.178 0 2.055.597 2.506 1.742l6.34 15.28c.2.448.276.92.276 1.269zm-7.067-4.629L45.43 30.61l-2.054 5.873h4.11z" fill="#000"/><path d="M30.32 25.832v15.13c0 1.518-1.128 2.638-2.631 2.638-1.504 0-2.631-1.12-2.631-2.638V27.898h-3.884c-.1 8.038-1.429 12.294-4.586 14.584-1.052.771-2.03 1.12-3.182 1.12-1.404 0-2.381-.921-2.381-2.29 0-1.12.601-1.941 1.654-2.315 2.631-.945 3.508-3.857 3.508-11.621v-1.593c0-1.518 1.128-2.638 2.656-2.638h8.82c1.53.05 2.657 1.17 2.657 2.688zM106.423 25.533v15.454c0 1.518-1.128 2.638-2.631 2.638-1.504 0-2.631-1.12-2.631-2.638V33.97l-2.631 4.157c-.727 1.144-1.404 1.617-2.381 1.617-.977 0-1.654-.448-2.38-1.617l-2.632-4.157v7.018c0 1.518-1.127 2.638-2.63 2.638-1.504 0-2.632-1.12-2.632-2.638V25.533c0-1.543 1.103-2.712 2.631-2.712 1.078 0 1.804.522 2.656 1.916L96.15 32.7l4.987-7.963c.852-1.394 1.603-1.916 2.656-1.916 1.528 0 2.631 1.144 2.631 2.712zM61.894 14.11c1.83 2.14 4.385 4.032 7.868 5.227-7.918 2.14-12.73-4.978-12.73-4.978 1.855-.298 3.459-.373 4.862-.249z" fill="#000"/><path fill-rule="evenodd" clip-rule="evenodd" d="M14.497 52.24c1.708.044 2.744.84 2.744 2.205 0 1.358-1.036 2.16-2.744 2.197v.519h-.358v-.519c-1.708-.036-2.745-.84-2.745-2.197 0-1.365 1.037-2.168 2.745-2.205v-.51h.358v.51zm0 .307v3.789c1.489-.051 2.38-.723 2.38-1.898 0-1.168-.891-1.847-2.38-1.891zm-.358 0c-1.496.051-2.38.715-2.38 1.898 0 1.175.898 1.84 2.38 1.89v-3.788zM22.207 51.89h1.832c1.285 0 2.059.642 2.059 1.723 0 1.073-.774 1.715-2.059 1.715h-1.46V57h-.372v-5.11zm.372 3.102h1.46c1.095 0 1.68-.503 1.68-1.38 0-.883-.585-1.386-1.68-1.386h-1.46v2.767z" fill="#000"/><path d="M31.312 54.57v2.094h3.154V57H30.94v-5.11h3.416v.336h-3.044v2.015h2.723v.328h-2.723zM45.126 56.664V51.89h.372V57H39.36v-5.11h.372v4.774h2.511V51.89h.373v4.774h2.511zM61.395 51.89h.306L61.71 57h-.365l-.008-4.373-2.139 3.694h-.182l-2.139-3.68V57h-.365v-5.11h.314l2.285 3.95 2.285-3.95z" fill="#000"/><path fill-rule="evenodd" clip-rule="evenodd" d="M71.49 57h-.402l-.657-1.438h-2.964L66.817 57h-.4l2.35-5.11h.372L71.49 57zm-2.54-4.701l-1.337 2.949h2.68l-1.344-2.95zM76.201 51.89h1.832c1.285 0 2.059.642 2.059 1.723 0 1.073-.774 1.715-2.059 1.715h-1.46V57h-.372v-5.11zm.372 3.102h1.46c1.095 0 1.68-.503 1.68-1.38 0-.883-.585-1.386-1.68-1.386h-1.46v2.767z" fill="#000"/><path d="M88.92 57h-.438l-1.95-2.424h-1.226V57h-.372v-5.11h.372v2.35h1.234l1.832-2.35h.416l-1.956 2.49L88.92 57zM93.854 54.57v2.094h3.153V57h-3.525v-5.11h3.416v.336h-3.044v2.015h2.723v.328h-2.723zM101.054 51.89h4.052v.336h-1.84V57h-.372v-4.774h-1.84v-.336z" fill="#000"/></g></symbol><view id="icon__default-view" viewBox="0 0 24 24"/>
<use href="#icon__default" width="24" height="24" x="0" y="0"/>
</svg>